<?xml version="1.0" standalone="no"?><!DOCTYPE svg PUBLIC "-//W3C//DTD SVG 1.1//EN" "http://www.w3.org/Graphics/SVG/1.1/DTD/svg11.dtd"><svg t="1722350306222" class="icon" viewBox="0 0 1024 1024" version="1.1" xmlns="http://www.w3.org/2000/svg" p-id="1547" xmlns:xlink="http://www.w3.org/1999/xlink" width="200" height="200"><path d="M473.92995555 438.28337778c6.72426667-23.60888889 10.8544-76.34488889 12.00355556-125.47413333a218.48974222 218.48974222 0 0 0-130.01386666 63.0784c39.02577778 29.20675555 83.70631111 59.0848 104.37973333 69.27928888 4.35768889-2.65102222 8.9088-4.94933333 13.63057777-6.88355555zM415.6416 503.27324445c-15.34862222-20.57102222-53.98755555-56.43377778-91.24977778-87.47235556a218.28494222 218.28494222 0 0 0-32.32426667 114.69937778c0.04551111 7.82791111 0.512 15.64444445 1.37671112 23.42684444 47.25191111-12.31075555 98.73635555-28.64924445 119.63733333-38.51377778 0.6144-4.096 1.45635555-8.14648889 2.56-12.14008888zM304.64 603.67075555a219.63548445 219.63548445 0 0 0 88.70115555 111.55911112c21.08302222-47.88906667 41.03964445-101.08017778 43.55413334-118.74986667a94.09422222 94.09422222 0 0 1-7.64586667-9.84177778c-26.30542222-0.47786667-77.83537778 7.35004445-124.60942222 17.03253333zM483.23697778 555.16728889l29.63911111 13.43715556 28.9792-14.75697778 6.39431111-31.99431112-20.84408889-24.95146666-32.42666666 0.84195556-19.69493334 25.89582222z" p-id="1548" fill="#1e3050"></path><path d="M1016.16071111 609.97404445L932.18133333 242.02808889s-4.41457778-25.17902222-9.30702222-31.88053334c-4.89244445-6.70151111-26.07786667-17.53315555-26.07786666-17.53315555L549.75146667 25.50897778s-28.09173333-10.31964445-37.75146667-10.50168889c-8.99982222 0-35.40764445 9.37528889-35.40764445 9.37528889L123.32373333 194.51448889s-16.56604445 8.69262222-20.57102222 13.71022222c-4.00497778 5.0176-7.97582222 21.04888889-7.97582222 21.04888889L4.90382222 623.09262222l-2.69653333 11.8784s-2.24142222 9.58008889 1.39946666 16.85048889l5.09724445 10.19448889 7.11111111 11.01368889 257.4336 320.22755556s7.64586667 10.19448889 12.74311111 12.7431111c5.09724445 5.09724445 23.09688889 2.54862222 23.09688889 2.54862223H714.86577778s20.38897778 1.04675555 25.69102222-2.54862223c7.64586667-5.09724445 16.21333333-17.84035555 16.21333333-17.84035555l244.69048889-306.87004445s16.896-21.15128889 18.93262223-29.71875555c2.54862222-20.54826667-4.23253333-41.59715555-4.23253334-41.59715555z m-161.15484444 19.28533333c-18.6368-4.23253333-20.20693333-8.81777778-44.82844445-15.43964445a69.54552889 69.54552889 0 0 0-37.05742222 2.01386667h-0.12515555a276.08064 276.08064 0 0 1-120.86613334 151.09688889 52.98744889 52.98744889 0 0 0 7.13386667 31.70986666c11.92391111 22.4256 16.74808889 23.04 25.05386667 40.26595556 6.39431111 13.30062222 3.39057778 28.11448889-6.7584 32.95004444-10.1376 4.84693333-23.57475555-1.99111111-30.0032-15.29173333-8.20337778-17.22595555-5.65475555-21.31057778-15.84924445-44.70328889a68.80711111 68.80711111 0 0 0-20.69617778-24.8832 276.06129778 276.06129778 0 0 1-196.10737777 1.29706667l-1.17191112 2.67377778c-14.71146667 7.0656-21.08302222 19.44462222-24.6784 27.70488889-10.17173333 23.40408889-7.56622222 27.47733333-15.84924444 44.70328888-6.41706667 13.35751111-19.85422222 20.20693333-30.0032 15.29173334-10.1376-4.9152-13.15271111-19.64942222-6.7584-32.96142222 8.28302222-17.32835555 13.1072-17.73795555 25.05386666-40.26595556a69.80949333 69.80949333 0 0 0 6.29191112-36.56817778l1.37671111-2.54862222A276.07608889 276.07608889 0 0 1 249.17333333 614.88924445c-13.76711111-5.67751111-26.38506667-3.10613333-34.6112-0.88746667-24.62151111 6.59911111-26.20302222 11.18435555-44.82844444 15.45102222-14.34737778 3.28817778-28.03484445-2.93546667-30.58346667-13.91502222-2.54862222-10.97955555 7.13386667-22.528 21.56088889-25.64551111 18.6368-4.23253333 22.05013333-0.78506667 47.104-5.50684445a69.26449778 69.26449778 0 0 0 30.74275556-16.31573333 279.20839111 279.20839111 0 0 1-2.54862222-37.36462222 273.92 273.92 0 0 1 44.70328888-150.38008889c-3.94808889-14.96177778-14.14257778-23.59751111-21.15128888-28.69475556-20.51413333-15.29173333-25.11075555-13.56231111-40.0384-25.48622222-11.54844445-9.32977778-15.21208889-23.98435555-8.20337778-32.80213333 7.00871111-8.81777778 22.07288889-8.46506667 33.62133333 0.73955555 14.96177778 11.92391111 14.37013333 16.72533333 33.6896 33.3824a69.64906667 69.64906667 0 0 0 32.55182222 13.97191111 274.66979555 274.66979555 0 0 1 174.61475556-85.02613333v-1.17191111c10.19448889-12.74311111 10.5472-26.68088889 10.19448889-35.68071111-0.96711111-25.46346667-5.09724445-28.03484445-5.09724445-47.14951111 0-14.77973333 9.12497778-26.76053333 20.38897778-26.76053334s20.38897778 11.9808 20.38897778 26.76053334c0 19.11466667-4.13013333 21.66328889-5.09724445 47.14951111 0.12515555 12.5952 3.64088889 24.92871111 10.19448889 35.68071111v1.17191111a274.43313778 274.43313778 0 0 1 173.13564445 83.44462222l0.36408888-0.32995555c16.41813333 0.02275555 27.4432-8.38542222 34.2584889-14.26773334 19.31946667-16.64568889 18.76195555-21.45848889 33.6896-33.39377778 11.54844445-9.22737778 26.55573333-9.53457778 33.64408888-0.73955555s3.34506667 23.39271111-8.20337778 32.62008889c-14.96177778 12.00355555-19.52426667 10.37653333-40.0384 25.48622222a69.60583111 69.60583111 0 0 0-21.56088888 30.12835556l-0.43235556 0.3072a273.91544889 273.91544889 0 0 1 44.93084444 150.96035555c0 11.93528889-0.77368889 23.84782222-2.2983111 35.68071111h0.22755555c10.14897778 12.74311111 23.6544 16.1792 32.52906667 17.84035556 25.05386667 4.72177778 28.4672 1.27431111 47.104 5.5296 14.40426667 3.26542222 24.02986667 14.67733333 21.48124444 25.66826666-2.56 10.99093333-16.20195555 17.2032-30.59484444 13.91502223z" p-id="1549" fill="#1e3050"></path><path d="M606.74275555 502.48817778a97.78062222 97.78062222 0 0 1 2.73066667 11.95804444c21.93635555 11.79875555 72.37404445 27.46595555 119.73973333 39.38986667 0.83057778-7.74826667 1.24017778-15.54204445 1.25155556-23.33582222 0.09102222-40.74382222-11.24124445-80.6912-32.69973333-115.33653334-38.38862222 32.67697778-78.44977778 70.70151111-91.02222223 87.32444445zM560.5376 444.16568889c22.9376-9.80764445 66.54862222-39.424 105.39235555-68.99484444a218.54435555 218.54435555 0 0 0-128.9216-62.3160889c1.66115555 50.69937778 6.5536 105.92711111 11.65084445 125.53102223 4.08462222 1.67253333 8.04408889 3.60675555 11.8784 5.77991111zM585.15911111 596.96924445c5.8368 26.40782222 24.97422222 74.72924445 44.70328889 117.82826666a219.85621333 219.85621333 0 0 0 88.064-111.22915556c-49.06097778-9.55733333-103.40124445-17.15768889-124.76871111-16.7936a97.31299555 97.31299555 0 0 1-7.99857778 10.1944889zM511.27182222 629.89653333c-2.01386667 0-4.02773333-0.07964445-6.01884444-0.2048-15.92888889 16.91875555-42.92835555 63.26044445-65.86595556 107.89546667a219.25546667 219.25546667 0 0 0 71.87342223 12.10595555c24.86044445 0.01137778 49.55022222-4.20977778 72.99982222-12.4928-21.82257778-42.17742222-48.54897778-87.90471111-63.44248889-107.75893333-3.15164445 0.3072-6.33742222 0.45511111-9.54595556 0.45511111z" p-id="1550" fill="#1e3050"></path></svg>