<?xml version="1.0" standalone="no"?><!DOCTYPE svg PUBLIC "-//W3C//DTD SVG 1.1//EN" "http://www.w3.org/Graphics/SVG/1.1/DTD/svg11.dtd"><svg t="1722350491471" class="icon" viewBox="0 0 1024 1024" version="1.1" xmlns="http://www.w3.org/2000/svg" p-id="2800" xmlns:xlink="http://www.w3.org/1999/xlink" width="200" height="200"><path d="M717.653333 178.346667l-208.426666-120.106667-208.213334 120.106667v240.64l208.213334 120.106666 208.426666-120.106666z m-70.4 13.653333l-138.026666 79.573333L371.413333 192l137.813334-79.573333z m-138.026666 292.906667l-161.28-93.226667V232.533333l161.28 93.226667 161.493333-93.226667v159.146667zM52.266667 605.013333v240.426667l208.426666 120.32L469.333333 845.44V605.013333l-208.213333-120.106666z m346.24 13.653334l-137.813334 79.573333L122.666667 618.666667l138.026666-79.573334z m-137.813334 292.906666l-161.28-93.226666V659.2l161.28 93.226667 161.28-93.226667v159.146667zM596.906667 635.52l161.066666-93.013333 161.493334 93.013333v77.226667h46.933333v-104.32l-208.426667-120.106667-208.213333 120.106667v240.426666l196.48 113.493334 23.68-40.533334-173.013333-100.053333v-186.24z" fill="#1e3050" p-id="2801"></path><path d="M966.4 807.466667h-76.586667V725.333333h-46.933333v82.133334h-76.586667v46.933333h76.586667v73.173333h46.933333v-73.173333h76.586667v-46.933333z" fill="#1e3050" p-id="2802"></path></svg>